# xmcd
# 
# Track frame offsets:
#     150
#     34050
#     62935
#     92107
#     130926
#     155087
#     189324
#     204396
#     220845
#     239528
#     262674
# 
# Disc length: 3874
# 
# Revision: 0
# Processed by: cddbd v1.5.2PL0 Copyright (c) Steve Scherf et al.
# Submitted via: fre:ac v1.0.27
# 
DISCID=9a0f200b
DTITLE=Eric Clapton - Transmission Impossible: Radio B'casts- cd 3 of 3
DYEAR=2018
DGENRE=Blues
TTITLE0=My Father's Eyes
TTITLE1=Pilgrim
TTITLE2=One Chance
TTITLE3=River Of Tears
TTITLE4=Going Down Slow
TTITLE5=She's Gone
TTITLE6=Driftin' Blues
TTITLE7=Alberta
TTITLE8=Tears In Heaven
TTITLE9=Layla
TTITLE10=Change The World
EXTD=
EXTT0=
EXTT1=
EXTT2=
EXTT3=
EXTT4=
EXTT5=
EXTT6=
EXTT7=
EXTT8=
EXTT9=
EXTT10=
PLAYORDER=
